Jump_normalized_Motion_pl14
version=1
nRows=10
nColumns=43
inDegrees=yes
endheader
time		pelvis_tilt		pelvis_list		pelvis_rotation		pelvis_tx		pelvis_ty		pelvis_tz		hip_flexion_r		hip_adduction_r		hip_rotation_r		knee_angle_r		ankle_angle_r		subtalar_angle_r		mtp_angle_r		hip_flexion_l		hip_adduction_l		hip_rotation_l		knee_angle_l		ankle_angle_l		subtalar_angle_l		mtp_angle_l		lumbar_extension		lumbar_bending		lumbar_rotation		neck_flexion		neck_lateral_bending		neck_rotation		arm_flex_r		arm_add_r		arm_rot_r		elbow_flex_r		pro_sup_r		wrist_flex_r		wrist_dev_r		hand_finger_flex_r		arm_flex_l		arm_add_l		arm_rot_l		elbow_flex_l		pro_sup_l		wrist_flex_l		wrist_dev_l		hand_finger_flex_l		
0.480000		-0.574995		1.775015		86.329440		0.047108		1.762119		1.967787		88.977093		-3.314166		4.046916		-147.860439		23.954325		1.725543		0.258783		86.310769		-8.829912		9.471689		-148.730136		22.763609		18.641464		10.872102		-70.761588		-4.206996		0.143762		40.446849		1.794828		-2.745377		31.281506		-20.940808		4.669965		59.764579		91.197422		3.096334		-2.468744		-28.026121		37.897107		-16.753335		5.740374		49.576659		105.341263		-5.723094		-2.262493		0.972937		
0.484242		-0.582070		1.707219		86.315893		0.047162		1.761910		1.966356		88.948334		-3.329738		4.063680		-147.962318		23.946506		1.737610		0.263825		86.235273		-8.797093		9.524142		-148.798912		22.756521		18.630708		10.874225		-70.604959		-4.242033		0.111035		40.466627		1.789383		-2.750713		31.498765		-20.961714		4.635256		59.814362		91.202361		3.113524		-2.469263		-28.045704		38.191141		-16.718038		5.704561		49.688934		105.332395		-5.739508		-2.261253		0.946998		
0.488485		-0.620192		1.574888		86.332012		0.047107		1.761942		1.964992		88.940153		-3.386234		4.156493		-147.999258		23.948556		1.901120		0.313132		86.176020		-8.710975		9.502560		-148.802591		22.812400		18.654398		10.907299		-70.404095		-4.275183		0.076717		40.608853		1.845581		-2.854549		31.858853		-21.043452		4.712353		59.697304		91.206793		3.361019		-2.308231		-28.156019		38.677959		-16.600759		5.755066		49.625837		105.341493		-5.757458		-1.849710		0.760945		
0.492727		-0.622298		1.503350		86.318288		0.047143		1.761764		1.963548		88.897264		-3.390050		4.178951		-148.091795		23.948109		1.922550		0.320549		86.105291		-8.674143		9.546879		-148.877887		22.817061		18.651052		10.913551		-70.240158		-4.302746		0.062844		40.568321		1.834234		-2.857024		32.071768		-21.048306		4.665735		59.772935		91.185581		3.372162		-2.319453		-28.173452		38.984180		-16.570913		5.741446		49.792014		105.335075		-5.763018		-1.830221		0.737522		
0.496970		-0.629304		1.395446		86.326249		0.047236		1.761560		1.962101		88.838836		-3.403486		4.285670		-148.166885		24.061090		2.290807		0.460467		86.020891		-8.634728		9.601299		-148.932099		22.995642		18.860228		11.062863		-70.006873		-4.347443		0.122671		40.422573		1.889013		-2.959675		32.240941		-21.028400		4.426647		59.782424		90.677865		3.567465		-2.207593		-28.409321		39.462820		-16.574120		6.088946		50.004350		105.190842		-5.595117		-0.740931		0.405323		
0.501212		-0.625729		1.285071		86.306489		0.047317		1.761491		1.960601		88.775305		-3.408853		4.316739		-148.225833		24.083726		2.402660		0.508879		85.931133		-8.602334		9.638333		-148.974380		23.036421		18.932885		11.118810		-69.804043		-4.375344		0.145209		40.406848		1.869128		-2.980729		32.472801		-21.000207		4.291799		59.806887		90.502550		3.592470		-2.179073		-28.502604		39.850905		-16.545310		6.173527		50.157919		105.115775		-5.543674		-0.405436		0.280919		
0.505455		-0.608773		1.191538		86.283038		0.047388		1.761435		1.959070		88.689601		-3.409845		4.318579		-148.293407		24.091661		2.437447		0.538124		85.830421		-8.591072		9.678615		-149.032307		23.051653		18.981359		11.164936		-69.613837		-4.385032		0.166968		40.413221		1.811406		-2.980174		32.724416		-20.966797		4.147384		59.849816		90.408981		3.553646		-2.165780		-28.551010		40.245155		-16.509412		6.221732		50.257259		105.038635		-5.494011		-0.193485		0.209993		
0.509697		-0.579405		1.141655		86.266824		0.047516		1.761396		1.957546		88.553776		-3.409801		4.304497		-148.372606		24.150798		2.525085		0.615356		85.682145		-8.595214		9.764037		-149.098952		23.128221		19.112093		11.290711		-69.440979		-4.393696		0.251191		40.353633		1.706491		-3.004859		32.936320		-20.920832		3.873965		59.921955		90.188100		3.514223		-2.096808		-28.628194		40.778237		-16.463493		6.453685		50.294786		104.857326		-5.317236		0.485358		0.053581		
0.513939		-0.585841		1.172168		86.269852		0.047536		1.761328		1.955996		88.377223		-3.432904		4.354326		-148.482092		24.156454		2.594027		0.715847		85.462875		-8.529467		9.848235		-149.170055		23.094824		19.254994		11.455536		-69.362023		-4.431852		0.365763		40.249464		1.710578		-3.194890		33.004542		-21.268901		3.848583		60.375599		90.009726		3.720265		-1.981335		-28.609309		41.257213		-16.415591		6.750098		50.602845		104.604650		-5.141461		1.241263		-0.208165		
0.518182		-0.587251		1.094786		86.255136		0.047575		1.761157		1.954388		88.321636		-3.432484		4.368823		-148.586996		24.147767		2.601581		0.723239		85.360647		-8.496153		9.900929		-149.247202		23.086567		19.248998		11.465988		-69.162374		-4.445505		0.343270		40.221641		1.685071		-3.198674		33.285474		-21.295286		3.791218		60.508129		89.989547		3.718651		-2.000731		-28.614019		41.616388		-16.394341		6.734300		50.762372		104.590257		-5.144906		1.259170		-0.230750		
